<?xml version="1.0" encoding="utf-8"?>
<!-- Generator: Adobe Illustrator 22.1.0, SVG Export Plug-In . SVG Version: 6.00 Build 0)  -->
<svg version="1.1"
	 fill="#7696d6"
	 id="Layer_1" xmlns:cc="http://creativecommons.org/ns#" xmlns:dc="http://purl.org/dc/elements/1.1/" xmlns:inkscape="http://www.inkscape.org/namespaces/inkscape" xmlns:rdf="http://www.w3.org/1999/02/22-rdf-syntax-ns#" xmlns:sodipodi="http://sodipodi.sourceforge.net/DTD/sodipodi-0.dtd" xmlns:svg="http://www.w3.org/2000/svg"
	 xmlns="http://www.w3.org/2000/svg" xmlns:xlink="http://www.w3.org/1999/xlink" x="0px" y="0px" viewBox="0 0 90 54"
	 style="enable-background:new 0 0 90 54;" xml:space="preserve">
<g transform="translate(0,-952.36218)">
	<path d="M3,952.4c-1.6,0-3,1.3-3,3v48c0,1.7,1.4,3,3,3H87c1.6,0,3-1.3,3-3v-48c0-1.7-1.4-3-3-3C87,952.4,3,952.4,3,952.4z M4,956.4
		h82v4.9l-41,28.6L4,961.3C4,961.3,4,956.4,4,956.4z M4,966.2l21,14.7L4,999.8V966.2L4,966.2z M86,966.2v33.6l-21-18.9L86,966.2
		L86,966.2z M28.4,983.2L43.8,994c0.7,0.5,1.6,0.5,2.3,0l15.4-10.8l21.3,19.2H7.1L28.4,983.2L28.4,983.2z"/>
</g>
</svg>
