<?xml version="1.0" encoding="utf-8"?>
<!-- Generator: Adobe Illustrator 22.1.0, SVG Export Plug-In . SVG Version: 6.00 Build 0)  -->
<svg fill="#7696d6" version="1.1" id="Layer_1" xmlns="http://www.w3.org/2000/svg" xmlns:xlink="http://www.w3.org/1999/xlink" x="0px" y="0px"
	 viewBox="0 0 270 369.1" style="enable-background:new 0 0 270 369.1;" xml:space="preserve">
<g>
	<path d="M135,0c74,0,135,60,135,135c0,47-61,147-102,215c-16,25-50,26-66,0C61,282,0,182,0,135C0,60,60,0,135,0z M135,21
		C72,21,21,72,21,135c0,41,59,138,99,204c8,12,22,12,30,0c39-66,99-163,99-204C249,72,198,21,135,21z"/>
	<path d="M135,74c34,0,61,27,61,61s-27,61-61,61s-61-27-61-61S101,74,135,74z M135,91c-25,0-44,19-44,44c0,24,19,44,44,44
		c24,0,44-20,44-44C179,110,159,91,135,91z"/>
</g>
</svg>
