<?xml version="1.0" encoding="utf-8"?>
<!-- Generator: Adobe Illustrator 22.1.0, SVG Export Plug-In . SVG Version: 6.00 Build 0)  -->
<svg fill="#7696d6" version="1.1" id="Layer_1" xmlns="http://www.w3.org/2000/svg" xmlns:xlink="http://www.w3.org/1999/xlink" x="0px" y="0px"
	 viewBox="0 0 90 90" style="enable-background:new 0 0 90 90;" xml:space="preserve">
<title>A</title>
<path d="M34.1,25.8c1.9-2.2,1.9-5.4,0.1-7.6l-12.9-16c-2.1-2.6-5.8-3-8.4-0.9c-0.1,0.1-0.2,0.1-0.3,0.2C8.4,5.3,4.9,9.7,2.1,14.7
	c-6.4,12.6,2,34.3,20.4,52.8C36.8,81.7,53.1,90,65.5,90c3.4,0.1,6.7-0.7,9.8-2.1c5-2.7,9.4-6.3,13.1-10.5c2.2-2.4,2-6.2-0.4-8.4
	c-0.1-0.1-0.2-0.2-0.3-0.2l-16-12.9c-2.2-1.8-5.4-1.8-7.6,0.1L56,62.8c-0.6,0.5-1.6,0.6-2.2,0.1c-4.9-3.9-9.6-8.1-14-12.6
	c-4.5-4.4-8.7-9.1-12.6-14c-0.5-0.7-0.5-1.6,0.1-2.2L34.1,25.8z M23.2,39.3c4,5.1,8.4,9.9,13,14.5c4.6,4.6,9.4,8.9,14.5,13
	c2.5,2,6.1,1.9,8.5-0.2l8.2-6.9c0.4-0.3,0.9-0.3,1.2,0l16,12.9c0.2,0.2,0.3,0.4,0.4,0.7c0,0.3-0.1,0.5-0.2,0.7
	c-3.3,3.8-7.3,7-11.7,9.4c-9,4.6-28.1-0.6-47-19.5C7.2,45,2,26,6.6,17C9,12.6,12.2,8.6,16,5.2C16.2,5.1,16.4,5,16.7,5
	c0,0,0.1,0,0.1,0c0.3,0,0.5,0.2,0.7,0.4l12.9,16c0.3,0.4,0.3,0.9,0,1.2l-6.9,8.2C21.3,33.2,21.2,36.8,23.2,39.3z"/>
</svg>
