<svg id="Layer_1" fill="#7696d6" enable-background="new 0 0 512 512" height="512" viewBox="0 0 512 512" width="512" xmlns="http://www.w3.org/2000/svg"><path d="m494.5 37.551h-477c-9.649 0-17.5 7.851-17.5 17.5v305.898c0 9.649 7.851 17.5 17.5 17.5h174.34v36.857h-26.061c-18.76 0-34.022 15.335-34.022 34.186v12.121c0 7.078 5.744 12.837 12.805 12.837h45.438c4.143 0 7.5-3.358 7.5-7.5s-3.357-7.5-7.5-7.5h-43.243v-9.958c0-10.579 8.533-19.186 19.022-19.186h180.442c10.489 0 19.022 8.606 19.022 19.186v9.958h-139.244c-4.143 0-7.5 3.358-7.5 7.5s3.357 7.5 7.5 7.5h141.441c7.06 0 12.805-5.759 12.805-12.837v-12.121c0-18.85-15.263-34.186-34.022-34.186h-26.063v-36.857h117.84c4.143 0 7.5-3.358 7.5-7.5s-3.357-7.5-7.5-7.5h-420.5c-1.355 0-2.5-1.145-2.5-2.5v-305.898c0-1.355 1.145-2.5 2.5-2.5h477c1.355 0 2.5 1.145 2.5 2.5v305.898c0 1.355-1.145 2.5-2.5 2.5h-20.5c-4.143 0-7.5 3.358-7.5 7.5s3.357 7.5 7.5 7.5h20.5c9.649 0 17.5-7.851 17.5-17.5v-305.898c0-9.65-7.851-17.5-17.5-17.5zm-215.849 340.898-2.908 10h-39.486l-2.908-10zm-71.811 0h10.888l4.86 16.714c1.396 4.801 6.039 8.286 11.039 8.286h44.746c5 0 9.643-3.485 11.04-8.287l4.859-16.713h10.888v36.857h-98.32z"/><path d="m239.019 337.519c-4.143 0-7.5 3.358-7.5 7.5s3.357 7.5 7.5 7.5h33.963c4.143 0 7.5-3.358 7.5-7.5s-3.357-7.5-7.5-7.5z"/><path d="m486.209 314.089v-236.853c0-6.893-5.607-12.5-12.5-12.5h-431.971c-6.893 0-12.5 5.607-12.5 12.5v236.854c0 6.893 5.607 12.5 12.5 12.5h431.971c6.893-.001 12.5-5.608 12.5-12.501zm-391.131-234.353h321.844v28.597h-321.844zm-15 231.853h-35.84v-231.853h35.84zm391.131 0h-39.287v-127.589c0-4.142-3.357-7.5-7.5-7.5s-7.5 3.358-7.5 7.5v127.589h-321.844v-188.256h321.844v25.667c0 4.142 3.357 7.5 7.5 7.5s7.5-3.358 7.5-7.5v-69.264h39.287z"/><path d="m391.897 141.449h-119.885c-6.893 0-12.5 5.607-12.5 12.5v27.567c0 6.893 5.607 12.5 12.5 12.5h119.886c6.893 0 12.5-5.607 12.5-12.5v-27.567c-.001-6.892-5.608-12.5-12.501-12.5zm-2.5 37.568h-114.885v-22.567h114.886v22.567z"/><path d="m391.897 204.054h-119.885c-6.893 0-12.5 5.607-12.5 12.5v27.567c0 6.893 5.607 12.5 12.5 12.5h119.886c6.893 0 12.5-5.607 12.5-12.5v-27.567c-.001-6.893-5.608-12.5-12.501-12.5zm-2.5 37.567h-114.885v-22.567h114.886v22.567z"/><path d="m396.897 266.953h-129.885c-4.143 0-7.5 3.358-7.5 7.5s3.357 7.5 7.5 7.5h129.886c4.143 0 7.5-3.358 7.5-7.5-.001-4.142-3.358-7.5-7.501-7.5z"/><path d="m235.606 141.449h-115.503c-6.893 0-12.5 5.607-12.5 12.5v115.504c0 6.893 5.607 12.5 12.5 12.5h115.504c6.893 0 12.5-5.607 12.5-12.5v-115.504c-.001-6.892-5.608-12.5-12.501-12.5zm-99.463 125.504c1.379-12.659 8.413-23.637 18.515-30.363 6.47 4.855 14.503 7.734 23.196 7.734s16.727-2.88 23.196-7.734c10.102 6.727 17.136 17.704 18.515 30.363zm17.981-61.357c0-13.085 10.645-23.73 23.73-23.73s23.73 10.645 23.73 23.73c0 13.084-10.645 23.729-23.73 23.729-13.085-.001-23.73-10.645-23.73-23.729zm78.982 52.058c-3.313-13.189-11.237-24.567-21.952-32.314 3.444-5.786 5.43-12.536 5.43-19.744 0-21.356-17.374-38.73-38.73-38.73-21.355 0-38.73 17.374-38.73 38.73 0 7.208 1.985 13.958 5.429 19.744-10.713 7.746-18.636 19.121-21.95 32.307v-101.198h110.504v101.205z"/><circle cx="402.5" cy="93.449" r="7.5"/><circle cx="115" cy="93.449" r="7.5"/><circle cx="135.5" cy="93.449" r="7.5"/><circle cx="156" cy="93.449" r="7.5"/></svg>